HIERARCHY
ROOT Hips
{
  OFFSET 207.228 101.594 272.306
  CHANNELS 6 Xposition Yposition Zposition Zrotation Xrotation Yrotation
  JOINT RightUpLeg
  {
    OFFSET -8.9458 -8.66707 0.101652
    CHANNELS 3 Zrotation Xrotation Yrotation
    JOINT RightLeg
    {
      OFFSET 0 -44.4227 1.3727
      CHANNELS 3 Zrotation Xrotation Yrotation
      JOINT RightFoot
      {
        OFFSET 0.253549 -42.0924 -1.46059
        CHANNELS 3 Zrotation Xrotation Yrotation
        JOINT RightToes
        {
          OFFSET 0.04 -4.41509 8.4991
          CHANNELS 3 Zrotation Xrotation Yrotation
          End Site
          {
            OFFSET -0.08 -0.137448 9.77979
          }
        }
      }
    }
  }
  JOINT Spine
  {
    OFFSET 0 11.8905 0
    CHANNELS 3 Zrotation Xrotation Yrotation
    JOINT Spine1
    {
      OFFSET 0 25.6574 0.127663
      CHANNELS 3 Zrotation Xrotation Yrotation
      JOINT HEad
      {
        OFFSET 0 8.73416 0.011341
        CHANNELS 3 Zrotation Xrotation Yrotation
        End Site
        {
          OFFSET -0.29 12.7742 2.51395
        }
      }
      JOINT LeftShoulder1
      {
        OFFSET 8.99 -0.362252 -0.22
        CHANNELS 3 Zrotation Xrotation Yrotation
        JOINT LeftArm
        {
          OFFSET 10.2827 -0.00338 0.322123
          CHANNELS 3 Zrotation Xrotation Yrotation
          JOINT LeftForeArm
          {
            OFFSET 32.7669 0.099144 -1.42434
            CHANNELS 3 Zrotation Xrotation Yrotation
            JOINT LeftHand
            {
              OFFSET 27.5643 0.085362 1.02216
              CHANNELS 3 Zrotation Xrotation Yrotation
              End Site
              {
                OFFSET 16.7443 -0.6 1.50291
              }
            }
          }
        }
      }
      JOINT RightShoulder
      {
        OFFSET -8.99 -0.362252 -0.22
        CHANNELS 3 Zrotation Xrotation Yrotation
        JOINT RightArm
        {
          OFFSET -10.2827 -0.00338 0.322123
          CHANNELS 3 Zrotation Xrotation Yrotation
          JOINT RightForeArm
          {
            OFFSET -32.8971 0.099144 -1.42434
            CHANNELS 3 Zrotation Xrotation Yrotation
            JOINT RightHand
            {
              OFFSET -27.4921 0.085362 1.02216
              CHANNELS 3 Zrotation Xrotation Yrotation
              End Site
              {
                OFFSET -16.6312 -0.6 1.50291
              }
            }
          }
        }
      }
    }
  }
  JOINT LeftUpLeg
  {
    OFFSET 8.9458 -8.66707 0.101652
    CHANNELS 3 Zrotation Xrotation Yrotation
    JOINT LeftLeg
    {
      OFFSET 0 -44.4227 1.3727
      CHANNELS 3 Zrotation Xrotation Yrotation
      JOINT LeftFoot
      {
        OFFSET -0.253549 -42.0924 -1.46059
        CHANNELS 3 Zrotation Xrotation Yrotation
        JOINT LeftToes
        {
          OFFSET -0.04 -4.41509 8.4991
          CHANNELS 3 Zrotation Xrotation Yrotation
          End Site
          {
            OFFSET 0.08 -0.047448 9.77979
          }
        }
      }
    }
  }
}
MOTION
Frames:	11
Frame Time:	0.0166667
98.859	101.594	-189.49	-21.9312	-30.8371	-172.914	-42.8659	-46.3918	-37.0463	4.69309	48.4498	5.09451	6.92555	-7.56187	-12.1797	0.0462048	0.000533964	0.662642	-1.92469	0.759262	-1.43299	-3.8303	1.56878	-2.84016	1.56193	19.3702	0.636613	-2.78E-15	3.18E-15	-2.39E-15	-31.8253	29.3475	-19.7857	-1.49012	0.604055	-23.1062	-2.81746	4.4695	12.9532	-2.78E-15	3.18E-15	-2.39E-15	59.1831	38.9931	-9.2093	9.18922	-13.6413	28.4068	-10.538	6.77461	3.29363	125.077	-60.1357	129.013	-153.74	75.5418	154.072	-19.035	2.87943	-30.2088	1.35E-14	3.18E-14	4.77E-15
98.845	101.33	-190.182	-21.3227	-30.0296	-173.344	-41.4374	-46.2407	-36.8235	4.1263	49.5022	6.01588	7.01665	-7.77199	-12.6888	0.0462048	0.000533964	0.662642	-1.84628	0.81227	-1.3472	-3.6735	1.67009	-2.66805	1.79057	19.8742	1.1178	-2.39E-15	0.00E+00	7.95E-16	-32.0455	29.1675	-18.6594	-1.46836	1.32142	-22.8401	-3.36482	4.35684	12.8153	-2.39E-15	0.00E+00	7.95E-16	59.3614	39.4179	-9.32261	9.37713	-13.1831	28.3403	-10.1757	6.84492	3.54811	126.046	-58.7765	129.982	-147.59	75.3916	148.08	-18.9984	2.54589	-30.0822	1.43E-14	3.18E-14	4.77E-15
98.909	101.112	-190.998	-20.4933	-29.0297	-173.643	-39.5298	-45.9406	-36.2279	3.33958	50.5972	7.21557	7.06029	-7.71152	-13.0482	0.0462048	0.000533964	0.662642	-1.73195	0.924455	-1.30616	-3.44304	1.89052	-2.58443	2.09571	20.3158	1.65921	-2.39E-15	0.00E+00	-7.95E-16	-32.2172	28.9474	-17.3181	-1.51335	2.0985	-22.6547	-3.90259	4.24373	12.7469	-2.39E-15	0.00E+00	-7.95E-16	59.596	39.9643	-9.28591	9.42726	-12.6874	28.215	-9.83418	6.9805	3.95178	126.566	-57.8177	130.536	-142.049	75.3623	142.802	-18.8281	2.13564	-29.9821	1.27E-14	3.18E-14	5.57E-15
98.99	100.874	-191.916	-19.618	-28.1096	-173.963	-37.7471	-45.749	-35.3503	2.92169	51.8913	7.97427	7.19022	-7.35639	-13.2397	0.0462048	0.000533964	0.662642	-1.63315	1.04399	-1.28268	-3.24332	2.12665	-2.53585	2.50346	20.6154	2.20997	-1.99E-15	0.00E+00	1.59E-15	-31.9275	28.8437	-15.9385	-1.91159	2.71419	-22.6693	-4.17383	3.9405	12.7302	-1.99E-15	0.00E+00	1.59E-15	59.748	40.5381	-8.97485	9.37886	-12.1661	28.0163	-9.43514	7.17635	4.361	126.937	-57.0932	131.053	-136.587	75.3666	137.622	-18.5919	1.64446	-29.8551	1.29E-14	3.16E-14	5.57E-15
99.003	100.567	-192.84	-18.9088	-27.2131	-174.411	-36.4968	-45.7304	-34.0957	3.40227	53.57	7.65246	7.68974	-6.80678	-13.7432	0.0462048	0.000533964	0.662642	-1.59746	1.16321	-1.2992	-3.16911	2.36468	-2.56641	2.9772	20.8481	2.83133	-2.78E-15	-3.18E-15	0.00E+00	-31.1328	28.9932	-14.6787	-2.70201	3.02339	-22.5793	-4.17207	3.53517	12.4409	-2.78E-15	-3.18E-15	0.00E+00	59.7659	41.2345	-8.47282	9.25022	-11.6655	27.7954	-8.91519	7.38023	4.69463	126.947	-56.7321	131.74	-131.792	75.6101	133.286	-18.3942	1.04452	-29.7957	1.47E-14	3.20E-14	5.57E-15
98.958	100.176	-193.712	-18.2102	-26.1918	-174.84	-35.3509	-45.8207	-32.7493	3.97147	55.57	7.03791	8.22683	-5.93704	-14.2009	0.0462048	0.000533964	0.662642	-1.58851	1.30731	-1.35801	-3.1468	2.65419	-2.68045	3.51613	21.039	3.49199	1.19E-15	-6.36E-15	-3.98E-16	-30.2696	29.2907	-13.5807	-3.54084	3.03247	-22.0165	-4.11137	3.40033	11.8023	1.19E-15	-6.36E-15	-3.98E-16	59.8557	41.8379	-8.01771	8.95561	-11.0645	27.6337	-8.34936	7.52875	4.86068	126.581	-56.7619	132.237	-127.04	75.97	128.911	-18.2295	0.328035	-29.7522	1.59E-14	3.18E-14	4.77E-15
98.892	99.6927	-194.52	-17.3829	-25.1768	-175.31	-34.0933	-45.9023	-31.4517	4.45774	57.5771	6.61506	8.75817	-5.24153	-14.4282	0.0462048	0.000533964	0.662642	-1.58056	1.44187	-1.3761	-3.1275	2.92353	-2.71333	4.10552	21.2556	4.15871	-1.99E-16	0.00E+00	-1.19E-15	-30.0819	29.7995	-12.1109	-3.81802	3.22353	-21.1704	-3.61857	3.04897	10.8012	-1.99E-16	0.00E+00	-1.19E-15	60.2269	42.0604	-7.76327	8.53295	-10.3834	27.5779	-7.92055	7.658	4.89593	126.006	-56.8664	132.435	-122.298	76.2759	124.635	-18.1988	-0.533859	-29.9092	1.25E-14	3.10E-14	7.16E-15
98.839	99.1567	-195.366	-16.0761	-24.0882	-175.577	-31.9266	-45.7024	-30.4039	3.75025	59.2632	7.59464	9.04556	-4.9556	-14.559	0.0462048	0.000533964	0.662642	-1.46502	1.556	-1.42152	-2.89257	3.15016	-2.80449	4.70418	21.6368	4.95049	3.18E-15	-6.36E-15	0.00E+00	-29.9812	30.4363	-10.2525	-3.95989	3.99875	-20.3517	-3.29179	2.62336	9.66863	3.18E-15	-6.36E-15	0.00E+00	60.7593	42.0878	-7.68231	8.22533	-9.77229	27.6516	-7.73181	7.77071	4.90025	125.579	-56.9219	132.324	-117.662	76.42	120.56	-18.152	-1.20609	-30.2349	1.27E-14	3.18E-14	5.57E-15
98.809	98.5952	-196.341	-14.4857	-23.0562	-175.846	-29.0767	-45.3464	-29.1105	2.71271	60.602	8.97947	9.28028	-5.10345	-14.8744	0.0462048	0.000533964	0.662642	-1.28932	1.62874	-1.45249	-2.53845	3.29202	-2.86986	5.41194	22.0484	5.63943	-1.79E-15	0.00E+00	-9.94E-16	-29.8519	30.9305	-8.46117	-4.12663	5.46112	-19.4657	-3.05424	2.4195	8.70343	-1.79E-15	0.00E+00	-9.94E-16	61.25	41.847	-7.67281	8.11509	-9.19719	27.8572	-7.75848	7.80617	4.93837	125.03	-56.9	131.862	-112.882	76.4199	116.413	-18.0929	-1.88641	-30.6347	1.24E-14	3.50E-14	6.36E-15
98.891	98.0348	-197.412	-12.8634	-22.1972	-176.134	-26.0534	-44.9487	-27.924	1.24277	61.7284	10.7667	9.49419	-5.40424	-15.3909	0.0462048	0.000533964	0.662642	-1.10301	1.64155	-1.42404	-2.16618	3.3125	-2.81813	6.2388	22.4283	5.93463	1.09E-15	3.18E-15	-1.59E-15	-29.7125	31.7696	-6.7999	-4.28389	6.6376	-18.8065	-2.65664	2.321	8.11132	1.09E-15	3.18E-15	-1.59E-15	61.7585	41.186	-7.87273	8.1704	-8.70296	28.189	-7.93514	7.79026	5.03271	124.508	-57.0663	131.665	-107.798	76.5511	111.889	-18.0335	-2.68108	-30.821	1.91E-14	2.86E-14	3.98E-15
99.03	97.4925	-198.506	-11.5742	-21.3027	-176.588	-23.3325	-44.5698	-26.0619	0.763379	62.9675	11.2631	10.0148	-5.55553	-16.0965	0.0462048	0.000533964	0.662642	-0.985297	1.67423	-1.35437	-1.93193	3.37384	-2.68164	6.90833	22.8219	6.06834	1.49E-16	0.00E+00	6.96E-16	-29.8132	32.8522	-5.18494	-4.38836	6.93273	-18.2906	-2.03511	2.12473	7.77607	1.49E-16	0.00E+00	6.96E-16	62.3266	40.3345	-8.35301	8.29203	-8.44404	28.6539	-8.22788	7.76026	5.2115	123.532	-57.6886	131.642	-102.742	77.0509	107.304	-18.0732	-3.59606	-30.8536	1.37E-14	3.50E-14	5.37E-15
